<?xml version="1.0" standalone="no"?>
<!DOCTYPE svg PUBLIC "-//W3C//DTD SVG 20010904//EN"
 "http://www.w3.org/TR/2001/REC-SVG-20010904/DTD/svg10.dtd">
<svg version="1.0" xmlns="http://www.w3.org/2000/svg"
 width="223.000000pt" height="223.000000pt" viewBox="0 0 223.000000 223.000000"
 preserveAspectRatio="xMidYMid meet">
<metadata>
Created by potrace 1.11, written by Peter Selinger 2001-2013
</metadata>
<g transform="translate(0.000000,223.000000) scale(0.100000,-0.100000)"
fill="#000000" stroke="none">
<path d="M420 2189 c-85 -14 -192 -70 -256 -133 -65 -66 -119 -172 -134 -266
-13 -87 -13 -1293 0 -1380 30 -187 168 -340 350 -389 34 -9 228 -11 765 -9
l720 3 78 37 c142 68 242 201 267 358 13 87 13 1293 0 1380 -33 205 -195 367
-400 400 -81 12 -1311 12 -1390 -1z"/>
</g>
</svg>
