<?xml version="1.0" standalone="no"?><!DOCTYPE svg PUBLIC "-//W3C//DTD SVG 1.1//EN" "http://www.w3.org/Graphics/SVG/1.1/DTD/svg11.dtd"><svg t="1523037792858" class="icon" style="" viewBox="0 0 1024 1024" version="1.1" xmlns="http://www.w3.org/2000/svg" p-id="4266" xmlns:xlink="http://www.w3.org/1999/xlink" width="24" height="24"><defs><style type="text/css"></style></defs><path d="M830.577778 227.555556H657.066667l74.903703-70.162963c4.740741-4.740741 8.533333-11.377778 8.533334-17.066667 0.948148-8.533333-1.896296-16.118519-8.533334-22.755556-5.688889-5.688889-13.274074-8.533333-21.807407-8.533333-7.585185 0-15.17037 2.844444-21.807407 8.533333L570.785185 227.555556H456.059259L338.488889 117.57037c-5.688889-5.688889-13.274074-8.533333-21.807408-8.533333-7.585185 0-15.17037 2.844444-21.807407 8.533333-11.377778 11.377778-11.377778 29.392593 0 39.822223L369.777778 227.555556H193.422222C117.57037 227.555556 56.888889 295.822222 56.888889 381.155556v332.8c0 85.333333 60.681481 153.6 136.533333 153.6h42.666667c0 25.6 22.755556 47.407407 50.251852 47.407407s50.251852-20.859259 50.251852-47.407407h353.659259c0 25.6 22.755556 47.407407 50.251852 47.407407s50.251852-20.859259 50.251852-47.407407h38.874074c75.851852 0 136.533333-69.214815 136.533333-153.6V381.155556c0.948148-85.333333-59.733333-153.6-135.585185-153.6zM455.111111 683.614815c0 25.6-20.859259 46.459259-47.407407 46.459259s-47.407407-20.859259-47.407408-46.459259V416.237037c0-25.6 20.859259-46.459259 47.407408-46.459259s47.407407 20.859259 47.407407 46.459259v267.377778z m208.592593 0c0 25.6-20.859259 46.459259-47.407408 46.459259s-47.407407-20.859259-47.407407-46.459259V416.237037c0-25.6 20.859259-46.459259 47.407407-46.459259s47.407407 20.859259 47.407408 46.459259v267.377778z" p-id="4267" fill="#ffffff"></path></svg>