<?xml version="1.0"?>
<svg xmlns="http://www.w3.org/2000/svg" xmlns:xlink="http://www.w3.org/1999/xlink" version="1.1" id="Capa_1" x="0px" y="0px" width="512px" height="512px" viewBox="0 0 473.068 473.068" style="enable-background:new 0 0 473.068 473.068;" xml:space="preserve"><g transform="matrix(0.868746, 0, 0, 0.868746, 31.046, 31.046)"><g>
	<g id="Layer_2_31_">
		<g>
			<path d="M355.507,181.955c8.793-6.139,29.39-20.519,29.39-55.351v-71.77h9.814c4.49,0,8.17-3.679,8.17-8.169v-38.5     c0-4.49-3.681-8.165-8.17-8.165H78.351c-4.495,0-8.165,3.675-8.165,8.165v38.5c0,4.491,3.67,8.169,8.165,8.169h9.82v73.071     c0,34.499,10.502,42.576,29.074,53.89l80.745,49.203v20.984c-20.346,12.23-73.465,44.242-80.434,49.107     c-8.793,6.135-29.384,20.51-29.384,55.352v61.793h-9.82c-4.495,0-8.165,3.676-8.165,8.166v38.498c0,4.49,3.67,8.17,8.165,8.17     h316.361c4.49,0,8.17-3.68,8.17-8.17V426.4c0-4.49-3.681-8.166-8.17-8.166h-9.814v-63.104c0-34.493-10.508-42.572-29.069-53.885     l-80.745-49.202v-20.987C295.417,218.831,348.537,186.822,355.507,181.955z M252.726,272.859l87.802,53.5     c6.734,4.109,10.333,6.373,12.001,9.002c1.991,3.164,2.963,9.627,2.963,19.768v63.104H117.574v-61.793     c0-19.507,9.718-26.289,16.81-31.242c5.551-3.865,54.402-33.389,85.878-52.289c4.428-2.658,7.135-7.441,7.135-12.611v-37.563     c0-5.123-2.671-9.883-7.053-12.55l-87.54-53.339l-0.265-0.165c-6.741-4.105-10.336-6.369-11.998-9.009     c-1.992-3.156-2.968-9.626-2.968-19.767V54.835h237.918v71.77c0,19.5-9.718,26.288-16.814,31.235     c-5.546,3.872-54.391,33.395-85.869,52.295c-4.427,2.658-7.134,7.442-7.134,12.601v37.563     C245.675,265.431,248.346,270.188,252.726,272.859z" data-original="#000000" class="active-path" data-old_color="#ffffff" fill="#ffffff"/>
			<path d="M331.065,154.234c0,0,5.291-4.619-2.801-3.299c-19.178,3.115-53.079,15.133-92.079,15.133s-57-11-82.507-11.303     c-5.569-0.066-5.456,3.629,0.937,7.391c6.386,3.758,63.772,35.681,71.671,40.08c7.896,4.389,12.417,4.05,20.786,0     C259.246,196.334,331.065,154.234,331.065,154.234z" data-original="#000000" class="active-path" data-old_color="#ffffff" fill="#ffffff"/>
			<path d="M154.311,397.564c-6.748,6.209-9.978,10.713,5.536,10.713c12.656,0,139.332,0,155.442,0     c16.099,0,9.856-5.453,2.311-12.643c-14.576-13.883-45.416-23.566-82.414-23.566     C196.432,372.068,169.342,383.723,154.311,397.564z" data-original="#000000" class="active-path" data-old_color="#ffffff" fill="#ffffff"/>
		</g>
	</g>
</g></g> </svg>
