<svg version="1.1" id="Capa_1" xmlns="http://www.w3.org/2000/svg" xmlns:xlink="http://www.w3.org/1999/xlink" x="0px" y="0px" width="512" height="512" viewBox="0 0 459 459" style="enable-background:new 0 0 459 459;" xml:space="preserve" class=""><g transform="matrix(0.868659, 0, 0, 0.868659, 30.1427, 30.1427)"><g>
	<g id="save">
		<path d="M357,0H51C22.95,0,0,22.95,0,51v357c0,28.05,22.95,51,51,51h357c28.05,0,51-22.95,51-51V102L357,0z M229.5,408    c-43.35,0-76.5-33.15-76.5-76.5s33.15-76.5,76.5-76.5c43.35,0,76.5,33.15,76.5,76.5S272.85,408,229.5,408z M306,153H51V51h255V153    z" data-original="#000000" class="active-path" style="fill:#FFFFFF" data-old_color="#ffffff"/>
	</g>
</g></g> </svg>